<?xml version="1.0" encoding="UTF-8" standalone="no"?>
<!-- Created with Inkscape (http://www.inkscape.org/) -->
<svg id="svg11539" xmlns:rdf="http://www.w3.org/1999/02/22-rdf-syntax-ns#" xmlns="http://www.w3.org/2000/svg" height="538.34375" width="580.66449" version="1.1" xmlns:cc="http://creativecommons.org/ns#" xmlns:dc="http://purl.org/dc/elements/1.1/">
 <metadata id="metadata162">
  <rdf:RDF>
   <cc:Work rdf:about="">
    <dc:format>image/svg+xml</dc:format>
    <dc:type rdf:resource="http://purl.org/dc/dcmitype/StillImage"/>
    <dc:title/>
   </cc:Work>
  </rdf:RDF>
 </metadata>
 <g id="layer1" font-size="15px" transform="translate(-129.06433,-303.0863)">
  <text id="text3089" y="330.42416" x="138.37909">
   <tspan id="tspan3091" style="writing-mode:lr-tb;" font-weight="bold" fill-rule="nonzero" font-size="37.50030136px" font-variant="normal" y="330.42416" x="138.37909 164.56369 185.93239 203.25378 225.79428 247.05318 268.73328 288.0878 308.55917 331.0997 352.77979 364.07748 385.4462 407.34589 429.02597 450.96259 470.99478 489.2504 510.61908 532.55566" font-family="DejaVu Sans" fill="#595959">Логические операторы</tspan>
  </text>
  <text id="text5157" y="658.72418" x="214.12033">
   <tspan id="tspan5159" style="writing-mode:lr-tb;" font-family="DejaVu Sans" fill-rule="nonzero" font-size="11.5px" font-variant="normal" y="658.72418" x="214.12033 222.90938 230.20909 237.43573 244.7478 251.42505 257.51013 264.63312 271.94513 275.71103 284.4881 293.21603" font-weight="bold" fill="#000000">Оператор ИЛИ</tspan>
  </text>
  <text id="text5161" y="673.72418" x="214.12033">
   <tspan id="tspan5163" style="writing-mode:lr-tb;" font-family="DejaVu Sans" fill-rule="nonzero" font-size="11.5px" font-variant="normal" y="673.72418" x="214.12033 222.05482 229.01912 236.16638" font-weight="normal" fill="#000000">При</tspan>
  </text>
  <text id="text5165" y="673.72418" x="239.93283">
   <tspan id="tspan5167" style="writing-mode:lr-tb;" font-family="DejaVu Sans" fill-rule="nonzero" font-size="11.5px" font-variant="normal" y="673.72418" x="239.93283 246.38422 253.22009 258.88422 265.3356 272.37305 279.20892 286.1976 293.34488 300.49213" font-weight="normal" fill="#000000">ветвлении</tspan>
  </text>
  <text id="text5169" y="673.72418" x="304.25784">
   <tspan id="tspan5171" style="writing-mode:lr-tb;" font-family="DejaVu Sans" fill-rule="nonzero" font-size="11.5px" font-variant="normal" y="673.72418" x="304.25784 310.67285 317.12424 322.78839 329.93564 336.38702 343.53427 350.49857 356.71201 363.54785 369.21201 375.42542" font-weight="normal" fill="#000000">активируется</tspan>
  </text>
  <text id="text5173" y="688.72418" x="214.12033">
   <tspan id="tspan5175" style="writing-mode:lr-tb;" font-family="DejaVu Sans" fill-rule="nonzero" font-size="11.5px" font-variant="normal" y="688.72418" x="214.12033 220.83434 228.06097 235.04965 241.46466 245.23053 252.37781 259.41528 266.5625 270.32837 277.21304 283.92703 290.96451 297.80035 304.63623 308.4021 314.85345 321.68933 327.35349 333.80487 340.64072" font-weight="normal" fill="#000000">одна или более ветвей</tspan>
  </text>
  <text id="text5177" y="688.72418" x="347.78284">
   <tspan id="tspan5179" style="writing-mode:lr-tb;" font-family="DejaVu Sans" fill-rule="nonzero" font-size="11.5px" font-variant="normal" y="688.72418" x="347.78284 352.37274" font-weight="normal" fill="#000000">.</tspan>
  </text>
  <text id="text5181" y="688.72418" x="356.14532">
   <tspan id="tspan5183" style="writing-mode:lr-tb;" font-family="DejaVu Sans" fill-rule="nonzero" font-size="11.5px" font-variant="normal" y="688.72418" x="356.14532 364.07983 371.04413 378.19138" font-weight="normal" fill="#000000">При</tspan>
  </text>
  <text id="text5185" y="703.72418" x="214.12033">
   <tspan id="tspan5187" style="writing-mode:lr-tb;" font-family="DejaVu Sans" fill-rule="nonzero" font-size="11.5px" font-variant="normal" y="703.72418" x="214.12033 220.33376 227.37122 234.51848 241.06769 248.05637 255.20361 262.35089 266.11676 272.56812 278.78156 285.6174" font-weight="normal" fill="#000000">слиянии все</tspan>
  </text>
  <text id="text5189" y="703.72418" x="289.38284">
   <tspan id="tspan5191" style="writing-mode:lr-tb;" font-family="DejaVu Sans" fill-rule="nonzero" font-size="11.5px" font-variant="normal" y="703.72418" x="289.38284 295.83423 304.39737 311.22125 317.93524 324.97272 331.9614 338.51059 347.5376 357.18741" font-weight="normal" fill="#000000">выполняющи</tspan>
  </text>
  <text id="text5193" y="703.72418" x="364.33282">
   <tspan id="tspan5195" style="writing-mode:lr-tb;" font-family="DejaVu Sans" fill-rule="nonzero" font-size="11.5px" font-variant="normal" y="703.72418" x="364.33282 371.1687 377.38211" font-weight="normal" fill="#000000">еся</tspan>
  </text>
  <text id="text5197" y="718.72546" x="214.12033">
   <tspan id="tspan5199" style="writing-mode:lr-tb;" font-family="DejaVu Sans" fill-rule="nonzero" font-size="11.5px" font-variant="normal" y="718.72546" x="214.12033 220.57172 226.93175 233.64574 240.87238 247.4216 257.07141" font-weight="normal" fill="#000000">входящи</tspan>
  </text>
  <text id="text5201" y="718.72546" x="264.22034">
   <tspan id="tspan5203" style="writing-mode:lr-tb;" font-family="DejaVu Sans" fill-rule="nonzero" font-size="11.5px" font-variant="normal" y="718.72546" x="264.22034" font-weight="normal" fill="#000000">е</tspan>
  </text>
  <text id="text5205" y="718.72546" x="274.82031">
   <tspan id="tspan5207" style="writing-mode:lr-tb;" font-family="DejaVu Sans" fill-rule="nonzero" font-size="11.5px" font-variant="normal" y="718.72546" x="274.82031 281.27173 288.10757 293.77173" font-weight="normal" fill="#000000">ветв</tspan>
  </text>
  <text id="text5209" y="718.72546" x="300.22034">
   <tspan id="tspan5211" style="writing-mode:lr-tb;" font-family="DejaVu Sans" fill-rule="nonzero" font-size="11.5px" font-variant="normal" y="718.72546" x="300.22034 307.36758 311.13345 318.36011 325.0741 332.11157 341.32217 348.31085 356.87399 360.63986 367.52451 376.08765 381.75177 388.0751" font-weight="normal" fill="#000000">и должны быть</tspan>
  </text>
  <text id="text5213" y="733.72546" x="214.12033">
   <tspan id="tspan5215" style="writing-mode:lr-tb;" font-family="DejaVu Sans" fill-rule="nonzero" font-size="11.5px" font-variant="normal" y="733.72546" x="214.12033 219.79645 226.21147 232.66286 239.49872 246.46301 255.93549 262.77136 269.76004" font-weight="normal" fill="#000000">завершены</tspan>
  </text>
  <text id="text5217" y="753.72546" x="278.32034">
   <tspan id="tspan5219" style="writing-mode:lr-tb;" font-family="DejaVu Sans" fill-rule="nonzero" font-size="11.5px" font-variant="normal" y="753.72546" x="278.32034" font-weight="normal" fill="#000000">.</tspan>
  </text>
  <text id="text5233" y="785.02417" x="214.97284">
   <tspan id="tspan5235" style="writing-mode:lr-tb;" font-family="DejaVu Sans" fill-rule="nonzero" font-size="11.5px" font-variant="normal" y="785.02417" x="214.97284 222.62067 230.10957 237.23254 246.96783 254.37744 263.70416 271.21777 274.98364 282.10663 289.40634 296.633 303.94504 310.62231 316.7074 323.83035" font-weight="bold" fill="#000000">Сложный оператор</tspan>
  </text>
  <text id="text5237" y="800.02417" x="214.97284">
   <tspan id="tspan5239" style="writing-mode:lr-tb;" font-family="DejaVu Sans" fill-rule="nonzero" font-size="11.5px" font-variant="normal" y="800.02417" x="214.97284 224.26263 230.97664 238.20328 245.03912 252.0766 259.22388 266.18814 272.40155 279.23743 284.90158 288.66745 294.88086 301.91833 308.63232 317.84293 324.8316 333.39474 340.23059 343.99646 350.2099 356.42334 363.46078 370.17477 376.62616 383.77341 390.32263" font-weight="normal" fill="#000000">Моделирует сложные условия</tspan>
  </text>
  <text id="text5241" y="815.02417" x="214.97284">
   <tspan id="tspan5243" style="writing-mode:lr-tb;" font-family="DejaVu Sans" fill-rule="nonzero" font-size="11.5px" font-variant="normal" y="815.02417" x="214.97284 221.42421 228.26007 233.92422 240.37561 247.41309 254.2489 261.23761 268.38489 274.93408 278.69995 285.8472 289.61307 295.82651 302.86395 310.0112 316.56042 323.5491 330.69638" font-weight="normal" fill="#000000">ветвления и слияния</tspan>
  </text>
  <text id="text5245" y="815.02417" x="337.24533">
   <tspan id="tspan5247" style="writing-mode:lr-tb;" font-family="DejaVu Sans" fill-rule="nonzero" font-size="11.5px" font-variant="normal" y="815.02417" x="337.24533" font-weight="normal" fill="#000000">.</tspan>
  </text>
  <text id="text5261" y="658.72418" x="482.67029">
   <tspan id="tspan5263" style="writing-mode:lr-tb;" font-family="DejaVu Sans" fill-rule="nonzero" font-size="11.5px" font-variant="normal" y="658.72418" x="482.67029 491.45935 498.75909 505.98572 513.29779 519.9751 526.06018 533.18311 540.49512 544.26099 551.77466 558.22607 565.04993 572.53888 582.09058 589.1767 595.854 605.4057 615.67828 622.90491 628.67896 635.80194 639.56781 648.34485 657.07281" font-weight="bold" fill="#000000">Оператор исключающего ИЛИ</tspan>
  </text>
  <text id="text5265" y="658.72418" x="665.84534">
   <tspan id="tspan5267" style="writing-mode:lr-tb;" font-family="DejaVu Sans" fill-rule="nonzero" font-size="11.5px" font-variant="normal" y="658.72418" x="665.84534 670.43524" font-weight="bold" fill="#000000">,</tspan>
  </text>
  <text id="text5269" y="673.72418" x="482.67029">
   <tspan id="tspan5271" style="writing-mode:lr-tb;" font-family="DejaVu Sans" fill-rule="nonzero" font-size="11.5px" font-variant="normal" y="673.72418" x="482.67029 489.1217 496.24463 503.53241 512.85913 518.94421 526.45789 533.9715 541.3811 550.70782 558.22144" font-weight="bold" fill="#000000">событийный</tspan>
  </text>
  <text id="text5273" y="673.72418" x="561.98279">
   <tspan id="tspan5275" style="writing-mode:lr-tb;" font-family="DejaVu Sans" fill-rule="nonzero" font-size="11.5px" font-variant="normal" y="673.72418" x="561.98279" font-weight="bold" fill="#000000">(</tspan>
  </text>
  <text id="text5277" y="673.72418" x="566.57031">
   <tspan id="tspan5279" style="writing-mode:lr-tb;" font-family="DejaVu Sans" fill-rule="nonzero" font-size="11.5px" font-variant="normal" y="673.72418" x="566.57031 573.02173 580.14471 586.18097 593.99359 600.6709 607.89752 613.9826 617.74847 625.15808 632.28107 639.09259 648.41931 655.93298" font-weight="bold" fill="#000000">создает новый</tspan>
  </text>
  <text id="text5281" y="688.72418" x="482.67029">
   <tspan id="tspan5283" style="writing-mode:lr-tb;" font-family="DejaVu Sans" fill-rule="nonzero" font-size="11.5px" font-variant="normal" y="688.72418" x="482.67029 489.21954 496.04346 502.07971 509.3064 518.30908 525.60876 533.09766 540.09833" font-weight="bold" fill="#000000">экземпляр</tspan>
  </text>
  <text id="text5285" y="688.72418" x="547.40784">
   <tspan id="tspan5287" style="writing-mode:lr-tb;" font-family="DejaVu Sans" fill-rule="nonzero" font-size="11.5px" font-variant="normal" y="688.72418" x="547.40784" font-weight="bold" fill="#000000">)</tspan>
  </text>
  <text id="text5289" y="703.72418" x="482.67029">
   <tspan id="tspan5291" style="writing-mode:lr-tb;" font-family="DejaVu Sans" fill-rule="nonzero" font-size="11.5px" font-variant="normal" y="703.72418" x="482.67029 490.84314 497.25818 503.47156 509.13574 515.34912 522.17303 529.21051 536.04639 543.03503 550.18231 557.01819 560.78406 567.23541 573.65045 582.86102 590.08771 596.8017 602.21558 608.92957 612.69543 619.84265 625.5188" font-weight="normal" fill="#000000">Наступление каждого из</tspan>
  </text>
  <text id="text5293" y="718.72546" x="482.67029">
   <tspan id="tspan5295" style="writing-mode:lr-tb;" font-family="DejaVu Sans" fill-rule="nonzero" font-size="11.5px" font-variant="normal" y="718.72546" x="482.67029 489.49426 496.20825 502.42163 509.45911 516.29492 523.52161 529.73499 538.76202 548.41187 555.55908 561.91907 565.68494 571.89844 578.61243 585.49707 594.06018 599.72437 606.87158 614.01886 617.78473 623.99817 630.71216 636.38824 643.61493 650.02991 656.86578 662.52997" font-weight="normal" fill="#000000">последующих событий создает</tspan>
  </text>
  <text id="text5297" y="733.72546" x="482.67029">
   <tspan id="tspan5299" style="writing-mode:lr-tb;" font-family="DejaVu Sans" fill-rule="nonzero" font-size="11.5px" font-variant="normal" y="733.72546" x="482.67029 488.88379 495.33508 501.01123 507.84711 516.3739 523.19775 530.23523 536.78442 543.74878 547.51465 554.3385 561.3028 568.01678 574.90143 581.7373 587.95074 594.16412" font-weight="normal" fill="#000000">экземпляр процесса</tspan>
  </text>
  <text id="text5301" y="753.72546" x="600.57037">
   <tspan id="tspan5303" style="writing-mode:lr-tb;" font-family="DejaVu Sans" fill-rule="nonzero" font-size="11.5px" font-variant="normal" y="753.72546" x="600.57037" font-weight="normal" fill="#000000">.</tspan>
  </text>
  <text id="text5317" y="779.03796" x="482.67029">
   <tspan id="tspan5319" style="writing-mode:lr-tb;" font-family="DejaVu Sans" fill-rule="nonzero" font-size="11.5px" font-variant="normal" y="779.03796" x="482.67029 491.45935 498.75909 505.98572 513.29779 519.9751 526.06018 533.18311 540.49512 544.26099" font-weight="bold" fill="#000000">Оператор И</tspan>
  </text>
  <text id="text5321" y="779.03796" x="553.03284">
   <tspan id="tspan5323" style="writing-mode:lr-tb;" font-family="DejaVu Sans" fill-rule="nonzero" font-size="11.5px" font-variant="normal" y="779.03796" x="553.03284 557.62274" font-weight="bold" fill="#000000">,</tspan>
  </text>
  <text id="text5325" y="779.03796" x="561.38281">
   <tspan id="tspan5327" style="writing-mode:lr-tb;" font-family="DejaVu Sans" fill-rule="nonzero" font-size="11.5px" font-variant="normal" y="779.03796" x="561.38281 567.83423 574.95721 582.24493 591.57166 597.65674 605.17035 612.68402 620.09363 629.42035" font-weight="bold" fill="#000000">событийный</tspan>
  </text>
  <text id="text5329" y="794.03796" x="482.67029">
   <tspan id="tspan5331" style="writing-mode:lr-tb;" font-family="DejaVu Sans" fill-rule="nonzero" font-size="11.5px" font-variant="normal" y="794.03796" x="482.67029" font-weight="bold" fill="#000000">(</tspan>
  </text>
  <text id="text5333" y="794.03796" x="487.25781">
   <tspan id="tspan5335" style="writing-mode:lr-tb;" font-family="DejaVu Sans" fill-rule="nonzero" font-size="11.5px" font-variant="normal" y="794.03796" x="487.25781 493.70923 500.83215 506.86847 514.68109 521.3584 528.58502 534.6701 538.43597 545.84558 552.96851 559.78009 569.10681 576.62048 580.38635 586.93555 593.75946 599.79572 607.0224 616.02509 623.32477 630.81372 637.81433" font-weight="bold" fill="#000000">создает новый экземпляр</tspan>
  </text>
  <text id="text5337" y="794.03796" x="645.12036">
   <tspan id="tspan5339" style="writing-mode:lr-tb;" font-family="DejaVu Sans" fill-rule="nonzero" font-size="11.5px" font-variant="normal" y="794.03796" x="645.12036" font-weight="bold" fill="#000000">)</tspan>
  </text>
  <text id="text5341" y="809.03796" x="482.67029">
   <tspan id="tspan5343" style="writing-mode:lr-tb;" font-family="DejaVu Sans" fill-rule="nonzero" font-size="11.5px" font-variant="normal" y="809.03796" x="482.67029 490.84314 497.25818 503.47156 509.13574 515.34912 522.17303 529.21051 536.04639 543.03503 550.18231 557.01819 560.78406 567.23541 573.44885 580.28473 586.64471 590.41058 597.2345 603.94849 610.16193 617.1994 624.03522 631.2619 637.47528 646.50232 656.1521 663.29938 669.65936" font-weight="normal" fill="#000000">Наступление всех последующих</tspan>
  </text>
  <text id="text5345" y="824.03796" x="482.67029">
   <tspan id="tspan5347" style="writing-mode:lr-tb;" font-family="DejaVu Sans" fill-rule="nonzero" font-size="11.5px" font-variant="normal" y="824.03796" x="482.67029 488.88379 495.59778 502.48242 511.04553 516.70972 523.85693 531.00421 534.77008 540.98352 547.69751 553.3736 560.60022 567.01526 573.85114 579.51532 583.28119 589.49457 595.94598 601.62207 608.45795 616.98474 623.80859 630.84607 637.39526 644.35956" font-weight="normal" fill="#000000">событий создает экземпляр</tspan>
  </text>
  <text id="text5349" y="839.03796" x="482.67029">
   <tspan id="tspan5351" style="writing-mode:lr-tb;" font-family="DejaVu Sans" fill-rule="nonzero" font-size="11.5px" font-variant="normal" y="839.03796" x="482.67029 489.49426 496.4585 503.17249 510.05713 516.89301 523.10645 529.31982" font-weight="normal" fill="#000000">процесса</tspan>
  </text>
  <text id="text5353" y="839.03796" x="535.73279">
   <tspan id="tspan5355" style="writing-mode:lr-tb;" font-family="DejaVu Sans" fill-rule="nonzero" font-size="11.5px" font-variant="normal" y="839.03796" x="535.73279" font-weight="normal" fill="#000000">.</tspan>
  </text>
  <text id="text5357" y="357.56165" x="326.49533">
   <tspan id="tspan5359" style="writing-mode:lr-tb;" font-weight="normal" fill-rule="nonzero" font-size="11.5px" font-variant="normal" y="357.56165" x="326.49533 334.42984 341.3941 348.54138 352.30725 358.75864 365.59448 371.25864 377.71002 384.74747 391.58334 398.57202 405.71927 412.86655 416.63242 423.62109 430.0361 436.85999 443.82428 450.23929 456.69067 463.72815 470.27734 477.11322 482.77737 486.54321 493.36713 500.08112 505.74527 512.45929 518.91064 522.67651 529.71399 536.86127 546.33374 552.65704 556.42291 563.24683 569.96082 573.72668 580.44067 587.66736 594.65601 601.37 608.51727" font-family="DejaVu Sans" fill="#000000">При ветвлении направляет поток лишь по одной</tspan>
  </text>
  <text id="text5361" y="372.56165" x="326.49533">
   <tspan id="tspan5363" style="writing-mode:lr-tb;" font-weight="normal" fill-rule="nonzero" font-size="11.5px" font-variant="normal" y="372.56165" x="326.49533 333.64261 339.31873 343.08459 350.23184 356.44525 362.8053 369.51929 376.74594 383.29514 392.94495 400.09219 406.45224 410.21811 416.66949 423.50534 429.16949 435.62088 442.45673" font-family="DejaVu Sans" fill="#000000">из исходящих ветвей</tspan>
  </text>
  <text id="text5365" y="372.56165" x="449.60782">
   <tspan id="tspan5367" style="writing-mode:lr-tb;" font-weight="normal" fill-rule="nonzero" font-size="11.5px" font-variant="normal" y="372.56165" x="449.60782 454.19775" font-family="DejaVu Sans" fill="#000000">.</tspan>
  </text>
  <text id="text5369" y="372.56165" x="457.95782">
   <tspan id="tspan5371" style="writing-mode:lr-tb;" font-weight="normal" fill-rule="nonzero" font-size="11.5px" font-variant="normal" y="372.56165" x="457.95782 465.89233 472.8566 480.00388 483.76974 489.98315 497.13043 504.11911 510.47913 517.44342 524.15741 531.14612 538.2934 543.96948 550.38452 557.26917 564.41644 571.56366 575.32953 582.15344 588.86743 594.53162 601.24561 607.69696 614.41095 620.86237" font-family="DejaVu Sans" fill="#000000">При синхронизации потоков</tspan>
  </text>
  <text id="text5373" y="387.56165" x="326.49533">
   <tspan id="tspan5375" style="writing-mode:lr-tb;" font-weight="normal" fill-rule="nonzero" font-size="11.5px" font-variant="normal" y="387.56165" x="326.49533 333.20935 340.03323 346.86908 353.83337 360.24838 365.91254 372.62656 379.59082 383.35672 390.07071 399.28131 406.42856 413.65521 420.07022 426.90607 432.57022 436.33609 442.01221 448.42725 454.8786 461.71448 468.67877 478.15128 484.98712 491.9758 499.12308 505.67227 509.43817 516.15216 523.37878 530.36749 537.08148 544.22876 547.99463 554.44598 560.80603 567.52002 574.74664 581.2959 590.94568 597.78156 604.92877" font-family="DejaVu Sans" fill="#000000">оператор ожидает завершения одной входящей</tspan>
  </text>
  <text id="text5377" y="402.56165" x="326.49533">
   <tspan id="tspan5379" style="writing-mode:lr-tb;" font-weight="normal" fill-rule="nonzero" font-size="11.5px" font-variant="normal" y="402.56165" x="326.49533 332.94672 339.78256 345.44672 351.8981 359.04538 362.81125 369.9585 373.72437 380.13937 386.59076 392.25491 399.40216 405.85355 413.00082 419.96509 426.17853 433.01437 438.67853 442.4444 449.59167 455.80508 462.1651 468.87912 476.10574 482.65494 492.30475 499.45203 506.59927 510.36514 517.18903 523.90308 529.5672 536.28119 542.7326 546.49847 552.71185 559.53577 566.50006 572.9151 579.36646 586.40393 593.23975 600.22845 607.37573" font-family="DejaVu Sans" fill="#000000">ветви и активирует исходящий поток управления</tspan>
  </text>
  <text id="text5381" y="402.56165" x="613.92035">
   <tspan id="tspan5383" style="writing-mode:lr-tb;" font-weight="normal" fill-rule="nonzero" font-size="11.5px" font-variant="normal" y="402.56165" x="613.92035" font-family="DejaVu Sans" fill="#000000">.</tspan>
  </text>
  <text id="text5385" y="357.23666" x="128.92395">
   <tspan id="tspan5387" style="writing-mode:lr-tb;" font-weight="bold" fill-rule="nonzero" font-size="11.5px" font-variant="normal" y="357.23666" x="128.92395 137.713 145.01271 152.23935 159.55141 166.22868 172.31377 179.43672 186.74878 190.51465 198.02829 204.47968 211.30356 218.79247 228.34416 235.43031 242.10759 251.65929 261.93188 269.15854 274.93259 282.05554 285.82141 294.59848 303.32642" font-family="DejaVu Sans" fill="#000000">Оператор исключающего ИЛИ</tspan>
  </text>
  <text id="text5389" y="357.23666" x="312.10785">
   <tspan id="tspan5391" style="writing-mode:lr-tb;" font-weight="bold" fill-rule="nonzero" font-size="11.5px" font-variant="normal" y="357.23666" x="312.10785" font-family="DejaVu Sans" fill="#000000">,</tspan>
  </text>
  <text id="text5393" y="369.73666" x="128.92395">
   <tspan id="tspan5395" style="writing-mode:lr-tb;" font-weight="bold" fill-rule="nonzero" font-size="11.5px" font-variant="normal" y="369.73666" x="128.92395 135.68674 142.98645 150.29851 156.97578 163.78734 171.27625 178.2769 185.50354 194.50623 203.83293 211.34659 215.11246 222.92508 229.60236 237.01196 244.42159 253.74829 262.75098" font-family="DejaVu Sans" fill="#000000">управляемый данными</tspan>
  </text>
  <text id="text5425" y="453.56168" x="324.52032">
   <tspan id="tspan5427" style="writing-mode:lr-tb;" font-weight="normal" fill-rule="nonzero" font-size="11.5px" font-variant="normal" y="453.56168" x="324.52032 332.45483 339.41913 346.25497 353.48163 362.95413 369.78998 376.00339 381.66754 388.11893 394.33234 401.16818 406.83234 410.59821 416.26236 422.97638 430.01382 436.33713 442.78851 449.5025 453.2684 459.48181 466.19583 473.08044 481.64359 487.30774 494.45502 501.00421 509.53101 513.29688 520.01086 526.89551 533.8598 540.27484 547.15948 553.87347 559.5376 565.98901 573.13623 576.9021 584.04938 591.08685 598.23413" font-family="DejaVu Sans" fill="#000000">Предшествует только событиям обработки или</tspan>
  </text>
  <text id="text5429" y="468.56168" x="324.52032">
   <tspan id="tspan5431" style="writing-mode:lr-tb;" font-weight="normal" fill-rule="nonzero" font-size="11.5px" font-variant="normal" y="468.56168" x="324.52032 330.19644 336.61148 343.8381 350.25314 357.24182 364.38907 370.93829" font-family="DejaVu Sans" fill="#000000">заданиям</tspan>
  </text>
  <text id="text5433" y="468.56168" x="379.45782">
   <tspan id="tspan5435" style="writing-mode:lr-tb;" font-weight="normal" fill-rule="nonzero" font-size="11.5px" font-variant="normal" y="468.56168" x="379.45782" font-family="DejaVu Sans" fill="#000000">-</tspan>
  </text>
  <text id="text5437" y="468.56168" x="384.04535">
   <tspan id="tspan5439" style="writing-mode:lr-tb;" font-weight="normal" fill-rule="nonzero" font-size="11.5px" font-variant="normal" y="468.56168" x="384.04535 390.75934 397.64398 404.60825 411.02328 417.90793 424.62192 430.28607 436.92078 444.06805 450.51941 456.93445 465.46121 469.22708 475.44052 482.15451 488.8685 495.75314 505.40295 512.23883 519.22748 526.37476" font-family="DejaVu Sans" fill="#000000">обработчикам сообщений</tspan>
  </text>
  <text id="text5441" y="468.56168" x="533.52032">
   <tspan id="tspan5443" style="writing-mode:lr-tb;" font-weight="normal" fill-rule="nonzero" font-size="11.5px" font-variant="normal" y="468.56168" x="533.52032 538.11023" font-family="DejaVu Sans" fill="#000000">.</tspan>
  </text>
  <text id="text5445" y="468.56168" x="541.88287">
   <tspan id="tspan5447" style="writing-mode:lr-tb;" font-weight="normal" fill-rule="nonzero" font-size="11.5px" font-variant="normal" y="468.56168" x="541.88287 549.81732 556.53131 562.1955 568.90948 575.36084" font-family="DejaVu Sans" fill="#000000">Поток</tspan>
  </text>
  <text id="text5449" y="483.56168" x="324.52032">
   <tspan id="tspan5451" style="writing-mode:lr-tb;" font-weight="normal" fill-rule="nonzero" font-size="11.5px" font-variant="normal" y="483.56168" x="324.52032 330.73376 337.55765 344.52194 350.93695 357.38834 364.42578 371.26166 378.25034 385.39758 391.94681 395.71268 402.70135 409.11636 415.94025 422.90454 429.31958 435.77094 442.80841 449.35764 456.19348 461.85764 468.07104 474.62027 478.38614 485.21002 491.92404 495.68991 501.35403 508.06802 515.21533 518.9812 525.43256 532.26843 537.93256 544.38397" font-family="DejaVu Sans" fill="#000000">управления направляется по той ветви</tspan>
  </text>
  <text id="text5453" y="483.56168" x="551.52032">
   <tspan id="tspan5455" style="writing-mode:lr-tb;" font-weight="normal" fill-rule="nonzero" font-size="11.5px" font-variant="normal" y="483.56168" x="551.52032 556.11023" font-family="DejaVu Sans" fill="#000000">,</tspan>
  </text>
  <text id="text5457" y="483.56168" x="559.88287">
   <tspan id="tspan5459" style="writing-mode:lr-tb;" font-weight="normal" fill-rule="nonzero" font-size="11.5px" font-variant="normal" y="483.56168" x="559.88287 565.29669 572.52332 579.35919" font-family="DejaVu Sans" fill="#000000">где</tspan>
  </text>
  <text id="text5461" y="498.56168" x="324.52032">
   <tspan id="tspan5463" style="writing-mode:lr-tb;" font-weight="normal" fill-rule="nonzero" font-size="11.5px" font-variant="normal" y="498.56168" x="324.52032 330.73376 337.44775 344.3324 352.89554 358.55969 365.70694 372.54282" font-family="DejaVu Sans" fill="#000000">событие</tspan>
  </text>
  <text id="text5465" y="498.56168" x="376.30783">
   <tspan id="tspan5467" style="writing-mode:lr-tb;" font-weight="normal" fill-rule="nonzero" font-size="11.5px" font-variant="normal" y="498.56168" x="376.30783 383.13171 390.09601 396.81 403.95728 409.63339 416.34738 425.81989 432.85736 439.57135" font-family="DejaVu Sans" fill="#000000">произошло</tspan>
  </text>
  <text id="text5469" y="498.56168" x="443.33282">
   <tspan id="tspan5471" style="writing-mode:lr-tb;" font-weight="normal" fill-rule="nonzero" font-size="11.5px" font-variant="normal" y="498.56168" x="443.33282 450.29712 456.71213 463.70081 470.02414 479.49664" font-family="DejaVu Sans" fill="#000000">раньше</tspan>
  </text>
  <text id="text5473" y="498.56168" x="486.33282">
   <tspan id="tspan5475" style="writing-mode:lr-tb;" font-weight="normal" fill-rule="nonzero" font-size="11.5px" font-variant="normal" y="498.56168" x="486.33282" font-family="DejaVu Sans" fill="#000000">.</tspan>
  </text>
  <text id="text5477" y="453.77417" x="128.92395">
   <tspan id="tspan5479" style="writing-mode:lr-tb;" font-weight="bold" fill-rule="nonzero" font-size="11.5px" font-variant="normal" y="453.77417" x="128.92395 137.713 145.01271 152.23935 159.55141 166.22868 172.31377 179.43672 186.74878 190.51465 198.02829 204.47968 211.30356 218.79247 228.34416 235.43031 242.10759 251.65929 261.93188 269.15854 274.93259 282.05554 285.82141 294.59848 303.32642" font-family="DejaVu Sans" fill="#000000">Оператор исключающего ИЛИ</tspan>
  </text>
  <text id="text5481" y="453.77417" x="312.10785">
   <tspan id="tspan5483" style="writing-mode:lr-tb;" font-weight="bold" fill-rule="nonzero" font-size="11.5px" font-variant="normal" y="453.77417" x="312.10785 316.69775" font-family="DejaVu Sans" fill="#000000">,</tspan>
  </text>
  <text id="text5485" y="466.27417" x="128.92395">
   <tspan id="tspan5487" style="writing-mode:lr-tb;" font-weight="bold" fill-rule="nonzero" font-size="11.5px" font-variant="normal" y="466.27417" x="128.92395 135.37534 142.49829 149.78604 159.11275 165.19783 172.71147 180.22513 187.63474 196.96144 204.47508" font-family="DejaVu Sans" fill="#000000">событийный</tspan>
  </text>
  <text id="text5497" y="549.14917" x="324.87033">
   <tspan id="tspan5499" style="writing-mode:lr-tb;" font-weight="normal" fill-rule="nonzero" font-size="11.5px" font-variant="normal" y="549.14917" x="324.87033 332.80484 339.7691 346.91638 350.68225 357.64655 364.06155 369.73767 376.96432 383.80017 390.83765 397.67349 404.66217 411.80942 418.9567 422.72256 429.71124 436.12625 439.89212 446.71603 453.13104 460.09534 466.51035 473.54782 480.58527 487.42111 494.45859 500.78192 507.7706 516.33374 523.16962 526.93549 533.75934 540.47333 546.13751 552.8515 559.30292 566.45013 570.216 576.66742 582.8808 589.71667" font-family="DejaVu Sans" fill="#000000">При разделении на параллельные потоки все</tspan>
  </text>
  <text id="text5501" y="564.14917" x="324.87033">
   <tspan id="tspan5503" style="writing-mode:lr-tb;" font-weight="normal" fill-rule="nonzero" font-size="11.5px" font-variant="normal" y="564.14917" x="324.87033 331.32172 338.15756 343.82172 350.2731 357.42038 361.18625 367.60126 374.05264 379.7168 386.86404 393.31543 400.46268 407.42697 413.64038 422.66739 428.33154 434.54495 441.09418 444.86005 451.57404 458.80069 465.78937 472.50336 478.95471 485.91904 492.75488 501.28168 508.11752 515.1062 522.09491" font-family="DejaVu Sans" fill="#000000">ветви активируются одновременно</tspan>
  </text>
  <text id="text5505" y="564.14917" x="528.80786">
   <tspan id="tspan5507" style="writing-mode:lr-tb;" font-weight="normal" fill-rule="nonzero" font-size="11.5px" font-variant="normal" y="564.14917" x="528.80786 533.39777" font-family="DejaVu Sans" fill="#000000">.</tspan>
  </text>
  <text id="text5509" y="564.14917" x="537.15784">
   <tspan id="tspan5511" style="writing-mode:lr-tb;" font-weight="normal" fill-rule="nonzero" font-size="11.5px" font-variant="normal" y="564.14917" x="537.15784 545.09235 552.05664 559.20386" font-family="DejaVu Sans" fill="#000000">При</tspan>
  </text>
  <text id="text5513" y="579.14917" x="324.87033">
   <tspan id="tspan5515" style="writing-mode:lr-tb;" font-weight="normal" fill-rule="nonzero" font-size="11.5px" font-variant="normal" y="579.14917" x="324.87033 331.08377 338.23102 345.2197 351.57971 358.54401 365.25803 372.2467 379.39395 385.07007 391.48508 398.36972 405.517 412.66425 416.43011 423.25403 429.66904 436.63333 443.04834 450.08582 457.12326 463.95911 470.99658 477.31989 484.30856 492.8717 499.23172 502.99762 509.44901 516.28485 521.94904 528.40039 535.23627 542.38348 546.14941 552.8634 559.68726 566.52313 573.48743 579.90247 585.56659 592.28058 599.24487" font-family="DejaVu Sans" fill="#000000">синхронизации параллельных ветвей оператор</tspan>
  </text>
  <text id="text5517" y="594.14917" x="324.87033">
   <tspan id="tspan5519" style="writing-mode:lr-tb;" font-weight="normal" fill-rule="nonzero" font-size="11.5px" font-variant="normal" y="594.14917" x="324.87033 334.08093 341.30759 348.14343 353.80759 357.57346 363.24957 369.66458 376.11597 382.95184 389.91611 399.38861 406.22449 413.21317 420.36041 426.90964 430.67551 437.12686 443.3403 450.17618 456.53619 460.30206 466.75342 473.11346 479.82748 487.05411 493.6033 503.25311 510.40039 516.76044 520.52631 526.97766 533.81354 539.47766 545.92908 552.76489 559.91217 563.67804 570.82532 574.59119 580.26727 586.68231 592.3465 599.18231 607.70911" font-family="DejaVu Sans" fill="#000000">ждет завершения всех входящих ветвей и затем</tspan>
  </text>
  <text id="text5521" y="609.14917" x="324.87033">
   <tspan id="tspan5523" style="writing-mode:lr-tb;" font-weight="normal" fill-rule="nonzero" font-size="11.5px" font-variant="normal" y="609.14917" x="324.87033 331.28537 337.73672 343.40088 350.54816 356.99951 364.14679 371.11108 377.32449 384.16037 389.82449 393.59036 400.73764 406.95105 413.3111 420.02509 427.25171 433.80093 443.45071 450.59799 457.74524 461.51111 468.33502 475.04901 480.71317 487.42715" font-family="DejaVu Sans" fill="#000000">активирует исходящий поток</tspan>
  </text>
  <text id="text5525" y="609.14917" x="493.88284">
   <tspan id="tspan5527" style="writing-mode:lr-tb;" font-weight="normal" fill-rule="nonzero" font-size="11.5px" font-variant="normal" y="609.14917" x="493.88284" font-family="DejaVu Sans" fill="#000000">.</tspan>
  </text>
  <text id="text5529" y="549.58667" x="128.56958">
   <tspan id="tspan5531" style="writing-mode:lr-tb;" font-weight="bold" fill-rule="nonzero" font-size="11.5px" font-variant="normal" y="549.58667" x="128.56958 137.35863 144.65834 151.88498 159.19704 165.87431 171.9594 179.08235 186.39441 190.16028" font-family="DejaVu Sans" fill="#000000">Оператор И</tspan>
  </text>
 </g>
</svg>
